<svg xmlns="http://www.w3.org/2000/svg" width="96" height="96" viewBox="0 0 96 96">
  <!-- 蛋殼紙:只有斑點、無方向性纖維。抖動網格佈點避免平鋪週期感,圓心離邊 ≥1 避免接縫裁切。 -->
  <g fill="#fff">
    <circle cx="5" cy="8" r=".65"/><circle cx="19" cy="4" r=".55"/><circle cx="31" cy="11" r=".75"/><circle cx="46" cy="6" r=".6"/><circle cx="59" cy="12" r=".5"/><circle cx="73" cy="5" r=".7"/><circle cx="88" cy="9" r=".6"/>
    <circle cx="11" cy="21" r=".55"/><circle cx="26" cy="18" r=".7"/><circle cx="38" cy="24" r=".6"/><circle cx="52" cy="19" r=".75"/><circle cx="66" cy="25" r=".55"/><circle cx="80" cy="17" r=".65"/><circle cx="93" cy="23" r=".5"/>
    <circle cx="4" cy="34" r=".7"/><circle cx="17" cy="38" r=".6"/><circle cx="33" cy="31" r=".55"/><circle cx="47" cy="36" r=".8"/><circle cx="60" cy="32" r=".6"/><circle cx="75" cy="38" r=".65"/><circle cx="89" cy="33" r=".55"/>
    <circle cx="9" cy="49" r=".6"/><circle cx="23" cy="45" r=".75"/><circle cx="36" cy="51" r=".5"/><circle cx="50" cy="47" r=".65"/><circle cx="64" cy="52" r=".7"/><circle cx="78" cy="46" r=".55"/><circle cx="92" cy="50" r=".7"/>
    <circle cx="6" cy="62" r=".55"/><circle cx="20" cy="66" r=".65"/><circle cx="34" cy="59" r=".7"/><circle cx="45" cy="64" r=".55"/><circle cx="58" cy="61" r=".8"/><circle cx="72" cy="67" r=".6"/><circle cx="86" cy="60" r=".65"/>
    <circle cx="13" cy="75" r=".7"/><circle cx="28" cy="79" r=".55"/><circle cx="41" cy="73" r=".65"/><circle cx="55" cy="77" r=".6"/><circle cx="69" cy="72" r=".75"/><circle cx="83" cy="78" r=".5"/><circle cx="94" cy="74" r=".6"/>
    <circle cx="5" cy="89" r=".6"/><circle cx="18" cy="85" r=".7"/><circle cx="32" cy="92" r=".55"/><circle cx="48" cy="87" r=".65"/><circle cx="62" cy="93" r=".6"/><circle cx="76" cy="86" r=".7"/><circle cx="90" cy="91" r=".55"/>
    <circle cx="12" cy="14" r=".3"/><circle cx="42" cy="15" r=".3"/><circle cx="68" cy="10" r=".3"/><circle cx="84" cy="27" r=".3"/><circle cx="55" cy="28" r=".3"/><circle cx="24" cy="27" r=".3"/><circle cx="40" cy="42" r=".3"/>
    <circle cx="70" cy="43" r=".3"/><circle cx="14" cy="56" r=".3"/><circle cx="86" cy="55" r=".3"/><circle cx="28" cy="63" r=".3"/><circle cx="51" cy="55" r=".3"/><circle cx="63" cy="83" r=".3"/><circle cx="37" cy="82" r=".3"/>
    <circle cx="9" cy="81" r=".3"/><circle cx="80" cy="64" r=".3"/><circle cx="92" cy="80" r=".3"/><circle cx="25" cy="90" r=".3"/><circle cx="54" cy="90" r=".3"/><circle cx="71" cy="94" r=".3"/><circle cx="44" cy="94" r=".3"/>
  </g>
</svg>
